<svg width="13" height="13" viewBox="0 0 13 13" fill="none" xmlns="http://www.w3.org/2000/svg">
<path d="M10.0969 11.1734C11.5594 10.0297 12.5 8.24844 12.5 6.24844C12.5 2.79688 9.71094 0.00469338 6.25938 5.88023e-06C2.80313 -0.00468162 0 2.79376 0 6.24844C0 8.20469 0.898438 9.95001 2.30625 11.0953C2.36094 11.1391 2.44063 11.1297 2.48438 11.075L3.1 10.2859C3.14219 10.2328 3.13281 10.1563 3.08125 10.1125C2.95469 10.0094 2.83281 9.89844 2.71563 9.78126C2.25878 9.326 1.89474 8.78631 1.64375 8.19219C1.38125 7.57813 1.25 6.92344 1.25 6.24844C1.25 5.57344 1.38125 4.91876 1.64219 4.30313C1.89375 3.70782 2.25469 3.17344 2.71406 2.71407C3.17344 2.25469 3.70781 1.89376 4.30313 1.64219C4.92031 1.38126 5.575 1.25001 6.25 1.25001C6.925 1.25001 7.57969 1.38126 8.19531 1.64219C8.79063 1.89376 9.325 2.25469 9.78438 2.71407C10.2438 3.17344 10.6047 3.70782 10.8563 4.30313C11.1172 4.91876 11.2484 5.57344 11.2484 6.24844C11.2484 6.92344 11.1172 7.57813 10.8563 8.19376C10.6053 8.78787 10.2412 9.32756 9.78438 9.78282C9.63906 9.92813 9.48594 10.0641 9.32656 10.1891L8.69063 9.37501C8.67623 9.3564 8.65687 9.34223 8.63478 9.33413C8.61269 9.32603 8.58876 9.32433 8.56574 9.32923C8.54273 9.33412 8.52156 9.34542 8.50468 9.36181C8.4878 9.3782 8.47589 9.39902 8.47031 9.42188L7.85156 11.9563C7.83281 12.0344 7.89219 12.1109 7.97188 12.1109L10.5813 12.1234C10.6859 12.1234 10.7453 12.0031 10.6797 11.9219L10.0969 11.1734Z" fill="#FFA940"/>
</svg>
