<svg width="12" height="12" viewBox="0 0 12 12" fill="none" xmlns="http://www.w3.org/2000/svg">
<path d="M6 12C5.19023 12 4.40391 11.8418 3.66445 11.5289C2.94961 11.2266 2.30859 10.793 1.75781 10.2422C1.20703 9.69141 0.773438 9.05039 0.471094 8.33555C0.158203 7.59609 0 6.80977 0 6C0 5.7668 0.188672 5.57812 0.421875 5.57812C0.655078 5.57812 0.84375 5.7668 0.84375 6C0.84375 6.69609 0.979688 7.37109 1.24922 8.00742C1.50938 8.62148 1.88086 9.17344 2.3543 9.64688C2.82773 10.1203 3.37969 10.493 3.99375 10.752C4.62891 11.0203 5.30391 11.1562 6 11.1562C6.69609 11.1562 7.37109 11.0203 8.00742 10.7508C8.62148 10.4906 9.17344 10.1191 9.64688 9.6457C10.1203 9.17227 10.493 8.62031 10.752 8.00625C11.0203 7.37109 11.1563 6.69609 11.1563 6C11.1563 5.30391 11.0203 4.62891 10.7508 3.99258C10.4915 3.37999 10.1163 2.82329 9.6457 2.35313C9.17605 1.88193 8.61923 1.5066 8.00625 1.24805C7.37109 0.979688 6.69609 0.84375 6 0.84375C5.7668 0.84375 5.57813 0.655078 5.57813 0.421875C5.57813 0.188672 5.7668 0 6 0C6.80977 0 7.59609 0.158203 8.33555 0.471094C9.05039 0.773438 9.69141 1.20703 10.2422 1.75781C10.793 2.30859 11.2254 2.95078 11.5277 3.66445C11.8406 4.40391 11.9988 5.19023 11.9988 6C11.9988 6.80977 11.8406 7.59609 11.5277 8.33555C11.2266 9.05039 10.793 9.69141 10.2422 10.2422C9.69141 10.793 9.04922 11.2254 8.33555 11.5277C7.59609 11.8418 6.80977 12 6 12V12Z" fill="#FFA940"/>
</svg>
